<svg xmlns="http://www.w3.org/2000/svg" viewBox="0 0 180 180">
  <rect width="180" height="180" fill="white"/>
  <!-- Flexed arm/muscle -->
  <path d="M45 120 Q35 100 45 80 Q50 65 70 60 Q85 58 95 70 Q100 60 115 58 Q135 56 145 75 Q155 95 145 115 Q140 125 125 130 Q100 135 85 125 Q70 135 50 130 Q40 128 45 120Z" fill="#F59E0B"/>
  <path d="M70 75 Q80 70 95 75 Q105 68 120 72 Q130 76 135 90 Q138 100 130 110 Q120 118 100 115 Q85 118 70 110 Q60 102 65 90 Q68 80 70 75Z" fill="#FBBF24"/>
  <!-- Q letter -->
  <text x="90" y="105" font-family="Arial Black, sans-serif" font-size="50" font-weight="900" fill="#1a1a1a" text-anchor="middle" dominant-baseline="middle">Q</text>
</svg>
